<svg xmlns="http://www.w3.org/2000/svg" height="800" width="1200" viewBox="-23.625225 -4.9933 204.75195 29.9598"><path d="M123.1172.0091c-3.7638-.125-7.8337 2.0416-9.7637 6.1191-1.1975 2.3013-2.1112 4.8639-2.7187 7.3789-.055.2225-.1049.4448-.1524.666-.0612.3575-.0657.8164-.0332 1.2852.1488 1.98 1.9072 4.3735 4.8047 4.5098h3.4375c3.7625.125 7.8305-2.0417 9.7618-6.1192 1.1975-2.3025 2.1112-4.8671 2.7187-7.3808.0537-.2238.1061-.4461.1523-.6661.0625-.3587.067-.8164.0332-1.2851-.1487-1.9813-1.9071-4.3728-4.8046-4.5078h-3.4356zM58.584.1927l1.539 19.582h3.086c-.005-.001-.0126 0-.0176 0h.1816c.6138-.019 1.162-.3394 1.4883-.8281h.002L77.4453.1927h-3.2539l-9.0136 13.4609L64.121.1927h-5.537zm21.1094 0l-7.2207 19.582h5.543L85.2343.1927zm13.0058 0c-4.9787.061-7.179 5.5997-4.459 9.1484 1.38 1.685 3.3504 3.4323 4.463 5.2773.705.9975-.049 2.6615-1.3966 2.6778h-8.791l-.9101 2.4785h11.1308c4.3625-.013 7.3142-5.1498 4.3867-9.0898-1.3512-1.9963-3.4942-3.3586-4.7617-5.3086-.7537-1.0175.004-2.6876 1.3653-2.7051h8.1816l.9121-2.4785zm13.957 0l-7.2167 19.582h5.541l7.2187-19.582zm29.918 0l-7.25 19.582h2.8555l4.996-13.4961.0255.2422 4.4883 12.1211c.2687.6375.8863 1.094 1.6113 1.1328h2.6113l7.252-19.582h-2.8555l-4.9004 13.2343L140.1914.1927h-3.6172zm-12.1914 1.8418c1.045.08 1.875.9591 1.875 2.0254.008.2625-.0373.5215-.1348.7578l-3.662 9.9726c-.7388 1.9138-2.4562 3.0865-4.4962 3.1465h-.541c-1.045-.08-1.875-.9591-1.875-2.0254-.008-.2625.038-.5247.1367-.7597l3.6602-9.9727c.74-1.9138 2.4575-3.0838 4.5-3.1426h.5371z" fill="#6c6e71"/><path d="M7.2207.1927L0 19.7747h5.8848l3.453-9.3652h7.006l-3.4532 9.3652h4.5977c.7775 0 1.4455-.4908 1.7168-1.1758.003-.01.006-.013.01-.018L25.9944.1922h-5.8848l-2.7793 7.5391h-7.0059L13.1037.1922H7.221zm22.5137 0l-7.2188 19.582h5.8828L35.6172.1927h-5.711zm9.8867 0l-7.2188 19.582h5.8829l2.7675-7.5098 1.4707-1.1289 3.9024 7.5664.002-.01c.005.01.007.013.01.018.32.6638 1.0226 1.1014 1.7988 1.0489-.0137 0-.0287.01-.0449.01h4.9961L46.9729 7.7185 56.7757.1911h-4.3965l-9.5898 7.3633L45.5042.1911h-5.8828z" fill="#d71820"/><path d="M157.5015 1.9237c0 1.0913-.8563 1.9463-1.97 1.9463-1.1025 0-1.9813-.855-1.9813-1.9463 0-1.0675.8788-1.9237 1.9813-1.9237 1.1137 0 1.97.8562 1.97 1.9237m-3.4588 0c0 .8563.6325 1.5363 1.5 1.5363.845 0 1.4663-.68 1.4663-1.525 0-.855-.6213-1.5475-1.4775-1.5475-.8563 0-1.4888.6925-1.4888 1.5362m1.1838 1.0088h-.445V1.0087c.175-.035.4212-.059.7387-.059.3625 0 .5275.059.6675.1412.1063.082.1875.235.1875.4225 0 .2113-.1637.375-.3987.445v.024c.1875.07.2937.2112.3525.4687.0588.2938.0937.4113.14.4813h-.48c-.0588-.07-.0937-.2463-.1525-.4688-.035-.2112-.1525-.305-.3988-.305h-.2112v.7738zm.0112-1.0913h.2112c.2463 0 .4463-.081.4463-.2812 0-.175-.1288-.2925-.4113-.2925-.1162 0-.1987.011-.2462.023v.5512z" fill="#6c6e71"/></svg>